<svg xmlns="http://www.w3.org/2000/svg" width="393.846" height="393.846" viewBox="0 0 393.84615384615387 393.84615384615387"><defs><clipPath id="a"><path d="M49.231 24.615h320v320h-320z"/></clipPath></defs><path fill="none" stroke="#000" d="M56.28 314.4c-.35 2.1-4.2 5.25-5.25 5.6 1.05.35 4.9 3.5 5.25 5.6" stroke-width="2" stroke-linejoin="round" stroke-linecap="round"/><path fill="none" stroke="#000" d="M73.846 320H50.281" stroke-width="2"/><path fill="none" stroke="#000" d="M363.681 325.6c.35-2.1 4.2-5.25 5.25-5.6-1.05-.35-4.9-3.5-5.25-5.6" stroke-width="2" stroke-linejoin="round" stroke-linecap="round"/><path fill="none" stroke="#000" d="M73.846 320h294.335" stroke-width="2"/><path fill="none" stroke="#000" d="M68.997 338.315c2.1.35 5.25 4.2 5.6 5.25.35-1.05 3.5-4.9 5.6-5.25" stroke-width="2" stroke-linejoin="round" stroke-linecap="round"/><path fill="none" stroke="#000" d="M73.846 320v23.565" stroke-width="2"/><path fill="none" stroke="#000" d="M80.196 30.915c-2.1-.35-5.25-4.2-5.6-5.25-.35 1.05-3.5 4.9-5.6 5.25" stroke-width="2" stroke-linejoin="round" stroke-linecap="round"/><path fill="none" stroke="#000" d="M73.846 320V25.665" stroke-width="2"/><path fill="none" stroke="#e84d39" d="M73.846 221.538l.5.334.5.333.5.333.5.334.5.333.5.333.5.334.5.333.5.333.5.334.5.333.5.333.5.334.5.333.5.333.5.334.5.333.5.333.5.334.5.333.5.333.5.334.5.333.5.333.5.334.5.333.5.333.5.334.5.333.5.333.5.334.5.333.5.333.5.334.5.333.5.333.5.334.5.333.5.333.5.334.5.333.5.333.5.334.5.333.5.333.5.334.5.333.5.333.5.334.5.333.5.333.5.334.5.333.5.333.5.334.5.333.5.333.5.334.5.333.5.333.5.334.5.333.5.333.5.334.5.333.5.333.5.334.5.333.5.333.5.334.5.333.5.333.5.334.5.333.5.333.5.334.5.333.5.333.5.334.5.333.5.333.5.334.5.333.5.333.5.334.5.333.5.333.5.334.5.333.5.333.5.334.5.333.5.333.5.334.5.333.5.333.5.334.5.333.5.333.5.334.5.333.5.333.5.334.5.333.5.333.5.334.5.333.5.333.5.334.5.333.5.333.5.334.5.333.5.333.5.334.5.333.5.333.5.334.5.333.5.333.5.334.5.333.5.333.5.334.5.333.5.333.5.334.5.333.5.333.5.334.5.333.5.333.5.334.5.333.5.333.5.334.5.333.5.333.5.334.5.333.5.333.5.334.5.333.5.333.5.334.5.333.5.333.5.334.5.333.5.333.5.334.5.333.5.333.5.334.5.333.5.333.5.334.5.333.5.333.5.334.5.333.5.333.5.334.5.333.5.333.5.334.5.333.5.333.5.334.5.333.5.333.5.334.5.333.5.333.5.334.5.333.5.333.5.334.5.333.5.333.5.334.5.333.5.333.5.334.5.333.5.333.5.334.5.333.5.333.5.334.5.333.5.333.5.334.5.333.5.333.5.334.5.333.5.333.5.334.5.333.5.333.5.334.5.333.5.333.5.334.5.333.5.333.5.334.5.333.5.333.5.334.5.333.5.333.5.334.5.333.5.333.5.334.5.333.5.333.5.334.5.333.5.333.5.334.5.333.5.333.5.334.5.333.5.333.5.334.5.333.5.333.5.334.5.333.5.333.5.334.5.333.5.333.5.334.5.333.5.333.5.334.5.333.5.333.5.334.5.333.5.333.5.334.5.333.5.333.5.334.5.333.5.333.5.334.5.333.5.333.5.334.5.333.5.333.5.334.5.333.5.333.5.334.5.333.5.333.5.334.5.333.5.333.5.334.5.333.5.333.5.334.5.333.5.333.5.334.5.333.5.333.5.334.5.333.5.333.5.334.5.333.5.333.5.334.5.333.5.333.5.334.5.333.5.333.5.334.5.333.5.333.5.334.5.333.5.333.5.334" stroke-width="3" clip-path="url(#a)"/><path fill="none" stroke="#1fab54" d="M73.846 123.077l.5.5.5.5.5.5.5.5.5.5.5.5.5.5.5.5.5.5.5.5.5.5.5.5.5.5.5.5.5.5.5.5.5.5.5.5.5.5.5.5.5.5.5.5.5.5.5.5.5.5.5.5.5.5.5.5.5.5.5.5.5.5.5.5.5.5.5.5.5.5.5.5.5.5.5.5.5.5.5.5.5.5.5.5.5.5.5.5.5.5.5.5.5.5.5.5.5.5.5.5.5.5.5.5.5.5.5.5.5.5.5.5.5.5.5.5.5.5.5.5.5.5.5.5.5.5.5.5.5.5.5.5.5.5.5.5.5.5.5.5.5.5.5.5.5.5.5.5.5.5.5.5.5.5.5.5.5.5.5.5.5.5.5.5.5.5.5.5.5.5.5.5.5.5.5.5.5.5.5.5.5.5.5.5.5.5.5.5.5.5.5.5.5.5.5.5.5.5.5.5.5.5.5.5.5.5.5.5.5.5.5.5.5.5.5.5.5.5.5.5.5.5.5.5.5.5.5.5.5.5.5.5.5.5.5.5.5.5.5.5.5.5.5.5.5.5.5.5.5.5.5.5.5.5.5.5.5.5.5.5.5.5.5.5.5.5.5.5.5.5.5.5.5.5.5.5.5.5.5.5.5.5.5.5.5.5.5.5.5.5.5.5.5.5.5.5.5.5.5.5.5.5.5.5.5.5.5.5.5.5.5.5.5.5.5.5.5.5.5.5.5.5.5.5.5.5.5.5.5.5.5.5.5.5.5.5.5.5.5.5.5.5.5.5.5.5.5.5.5.5.5.5.5.5.5.5.5.5.5.5.5.5.5.5.5.5.5.5.5.5.5.5.5.5.5.5.5.5.5.5.5.5.5.5.5.5.5.5.5.5.5.5.5.5.5.5.5.5.5.5.5.5.5.5.5.5.5.5.5.5.5.5.5.5.5.5.5.5.5.5.5.5.5.5.5.5.5.5.5.5.5.5.5.5.5.5.5.5.5.5.5.5.5.5.5.5.5.5.5.5.5.5.5.5.5.5.5.5.5.5.5.5.5.5.5.5.5.5.5.5.5.5.5.5.5.5.5.5.5.5.5.5.5.5.5.5.5.5.5.5.5.5.5.5.5.5.5.5.5.5.5.5.5.5.5.5.5.5.5.5.5.5.5.5.5.5.5.5.5.5.5.5.5.5.5.5.5.5.5.5.5.5.5.5.5.5.5.5.5.5.5.5.5.5.5.5.5.5.5.5.5.5.5.5.5.5.5.5.5.5.5.5.5.5.5.5.5.5.5.5.5.5.5.5.5.5.5.5.5.5.5.5.5.5.5.5.5.5.5.5.5.5.5.5.5.5.5.5.5.5.5.5.5.5.5.5.5.5.5.5.5.5.5.5.5.5.5.5.5.5.5.5.5.5.5.5.5.5.5.5.5.5.5.5.5.5.5.5.5.5.5.5.5.5.5.5.5.5.5.5.5.5.5.5.5.5.5.5.5.5.5.5.5.5.5.5.5.5.5.5.5.5.5.5.5.5.5.5.5.5.5.5.5.5.5.5.5.5.5.5.5.5.5.5.5.5.5.5.5.5.5.5.5.5.5.5.5.5.5.5.5.5.5.5.5.5.5.5.5.5.5.5.5.5.5.5.5.5.5.5.5.5.5.5.5.5.5.5.5.5.5.5.5.5.5.5.5.5.5.5.5.5.5.5.5.5.5.5.5.5.5.5.5.5.5.5.5.5.5.5.5.5.5.5.5.5.5.5.5.5.5.5.5.5.5.5" stroke-width="3" clip-path="url(#a)"/></svg>
