<svg xmlns="http://www.w3.org/2000/svg" width="426.667" height="426.667" viewBox="0 0 426.6666666666667 426.6666666666667"><defs><clipPath id="a"><path d="M53.333 53.333h320v320h-320z"/></clipPath></defs><path fill="none" stroke="#000" d="M60.383 341.066c-.35 2.1-4.2 5.25-5.25 5.6 1.05.35 4.9 3.5 5.25 5.6" stroke-width="2" stroke-linejoin="round" stroke-linecap="round"/><path fill="none" stroke="#000" d="M80 346.667H54.383" stroke-width="2"/><path fill="none" stroke="#000" d="M367.783 352.267c.35-2.1 4.2-5.25 5.25-5.6-1.05-.35-4.9-3.5-5.25-5.6" stroke-width="2" stroke-linejoin="round" stroke-linecap="round"/><path fill="none" stroke="#000" d="M80 346.667h292.283" stroke-width="2"/><path fill="none" stroke="#000" d="M75.15 367.033c2.1.35 5.25 4.2 5.6 5.25.35-1.05 3.5-4.9 5.6-5.25" stroke-width="2" stroke-linejoin="round" stroke-linecap="round"/><path fill="none" stroke="#000" d="M80 346.667v25.616" stroke-width="2"/><path fill="none" stroke="#000" d="M86.35 59.633c-2.1-.35-5.25-4.2-5.6-5.25-.35 1.05-3.5 4.9-5.6 5.25" stroke-width="2" stroke-linejoin="round" stroke-linecap="round"/><path fill="none" stroke="#000" d="M80 346.667V54.383" stroke-width="2"/><path fill="none" stroke="#e84d39" d="M80 240l.5.333.5.334.5.333.5.333.5.334.5.333.5.333.5.334.5.333.5.333.5.334.5.333.5.333.5.334.5.333.5.333.5.334.5.333.5.333.5.334.5.333.5.333.5.334.5.333.5.333.5.334.5.333.5.333.5.334.5.333.5.333.5.334.5.333.5.333.5.334.5.333.5.333.5.334.5.333.5.333.5.334.5.333.5.333.5.334.5.333.5.333.5.334.5.333.5.333.5.334.5.333.5.333.5.334.5.333.5.333.5.334.5.333.5.333.5.334.5.333.5.333.5.334.5.333.5.333.5.334.5.333.5.333.5.334.5.333.5.333.5.334.5.333.5.333.5.334.5.333.5.333.5.334.5.333.5.333.5.334.5.333.5.333.5.334.5.333.5.333.5.334.5.333.5.333.5.334.5.333.5.333.5.334.5.333.5.333.5.334.5.333.5.333.5.334.5.333.5.333.5.334.5.333.5.333.5.334.5.333.5.333.5.334.5.333.5.333.5.334.5.333.5.333.5.334.5.333.5.333.5.334.5.333.5.333.5.334.5.333.5.333.5.334.5.333.5.333.5.334.5.333.5.333.5.334.5.333.5.333.5.334.5.333.5.333.5.334.5.333.5.333.5.334.5.333.5.333.5.334.5.333.5.333.5.334.5.333.5.333.5.334.5.333.5.333.5.334.5.333.5.333.5.334.5.333.5.333.5.334.5.333.5.333.5.334.5.333.5.333.5.334.5.333.5.333.5.334.5.333.5.333.5.334.5.333.5.333.5.334.5.333.5.333.5.334.5.333.5.333.5.334.5.333.5.333.5.334.5.333.5.333.5.334.5.333.5.333.5.334.5.333.5.333.5.334.5.333.5.333.5.334.5.333.5.333.5.334.5.333.5.333.5.334.5.333.5.333.5.334.5.333.5.333.5.334.5.333.5.333.5.334.5.333.5.333.5.334.5.333.5.333.5.334.5.333.5.333.5.334.5.333.5.333.5.334.5.333.5.333.5.334.5.333.5.333.5.334.5.333.5.333.5.334.5.333.5.333.5.334.5.333.5.333.5.334.5.333.5.333.5.334.5.333.5.333.5.334.5.333.5.333.5.334.5.333.5.333.5.334.5.333.5.333.5.334.5.333.5.333.5.334.5.333.5.333.5.334.5.333.5.333.5.334.5.333.5.333.5.334.5.333.5.333.5.334.5.333.5.333.5.334.5.333.5.333.5.334.5.333.5.333.5.334.5.333.5.333.5.334.5.333.5.333.5.334.5.333.5.333.5.334.5.333.5.333.5.334.5.333.5.333.5.334.5.333.5.333.5.334.5.333.5.333.5.334.5.333.5.333.5.334.5.333.5.333.5.334.5.333.5.333.5.334.5.333.5.333.5.334.5.333.5.333.5.334.5.333.5.333.5.334.5.333.5.333.5.334.5.333.5.333.5.334.5.333.5.333.5.334" stroke-width="3" clip-path="url(#a)"/><path fill="none" stroke="#1fab54" d="M80 133.333l.5.5.5.5.5.5.5.5.5.5.5.5.5.5.5.5.5.5.5.5.5.5.5.5.5.5.5.5.5.5.5.5.5.5.5.5.5.5.5.5.5.5.5.5.5.5.5.5.5.5.5.5.5.5.5.5.5.5.5.5.5.5.5.5.5.5.5.5.5.5.5.5.5.5.5.5.5.5.5.5.5.5.5.5.5.5.5.5.5.5.5.5.5.5.5.5.5.5.5.5.5.5.5.5.5.5.5.5.5.5.5.5.5.5.5.5.5.5.5.5.5.5.5.5.5.5.5.5.5.5.5.5.5.5.5.5.5.5.5.5.5.5.5.5.5.5.5.5.5.5.5.5.5.5.5.5.5.5.5.5.5.5.5.5.5.5.5.5.5.5.5.5.5.5.5.5.5.5.5.5.5.5.5.5.5.5.5.5.5.5.5.5.5.5.5.5.5.5.5.5.5.5.5.5.5.5.5.5.5.5.5.5.5.5.5.5.5.5.5.5.5.5.5.5.5.5.5.5.5.5.5.5.5.5.5.5.5.5.5.5.5.5.5.5.5.5.5.5.5.5.5.5.5.5.5.5.5.5.5.5.5.5.5.5.5.5.5.5.5.5.5.5.5.5.5.5.5.5.5.5.5.5.5.5.5.5.5.5.5.5.5.5.5.5.5.5.5.5.5.5.5.5.5.5.5.5.5.5.5.5.5.5.5.5.5.5.5.5.5.5.5.5.5.5.5.5.5.5.5.5.5.5.5.5.5.5.5.5.5.5.5.5.5.5.5.5.5.5.5.5.5.5.5.5.5.5.5.5.5.5.5.5.5.5.5.5.5.5.5.5.5.5.5.5.5.5.5.5.5.5.5.5.5.5.5.5.5.5.5.5.5.5.5.5.5.5.5.5.5.5.5.5.5.5.5.5.5.5.5.5.5.5.5.5.5.5.5.5.5.5.5.5.5.5.5.5.5.5.5.5.5.5.5.5.5.5.5.5.5.5.5.5.5.5.5.5.5.5.5.5.5.5.5.5.5.5.5.5.5.5.5.5.5.5.5.5.5.5.5.5.5.5.5.5.5.5.5.5.5.5.5.5.5.5.5.5.5.5.5.5.5.5.5.5.5.5.5.5.5.5.5.5.5.5.5.5.5.5.5.5.5.5.5.5.5.5.5.5.5.5.5.5.5.5.5.5.5.5.5.5.5.5.5.5.5.5.5.5.5.5.5.5.5.5.5.5.5.5.5.5.5.5.5.5.5.5.5.5.5.5.5.5.5.5.5.5.5.5.5.5.5.5.5.5.5.5.5.5.5.5.5.5.5.5.5.5.5.5.5.5.5.5.5.5.5.5.5.5.5.5.5.5.5.5.5.5.5.5.5.5.5.5.5.5.5.5.5.5.5.5.5.5.5.5.5.5.5.5.5.5.5.5.5.5.5.5.5.5.5.5.5.5.5.5.5.5.5.5.5.5.5.5.5.5.5.5.5.5.5.5.5.5.5.5.5.5.5.5.5.5.5.5.5.5.5.5.5.5.5.5.5.5.5.5.5.5.5.5.5.5.5.5.5.5.5.5.5.5.5.5.5.5.5.5.5.5.5.5.5.5.5.5.5.5.5.5.5.5.5.5.5.5.5.5.5.5.5.5.5.5.5.5.5.5.5.5.5.5.5.5.5.5.5.5.5.5.5.5.5.5.5.5.5.5.5.5.5.5.5.5.5.5.5.5.5.5.5.5.5.5.5.5.5.5.5.5.5.5.5.5.5.5.5.5.5.5.5.5.5.5.5.5.5.5.5.5.5.5.5.5.5.5.5.5.5.5.5.5.5.5.5.5.5.5.5.5.5.5.5.5.5.5.5.5.5.5.5.5.5.5.5.5.5.5.5.5.5.5.5.5.5.5.5.5.5.5.5.5.5.5.5.5" stroke-width="3" clip-path="url(#a)"/><path stroke="#e84d39" d="M80 186.667l160 160" stroke-width="2" stroke-dasharray="8,6" fill="none"/><path stroke="#1fab54" d="M80 133.333l266.667 213.333" stroke-width="2" stroke-dasharray="8,6" fill="none"/></svg>
